<svg xmlns="http://www.w3.org/2000/svg" width="18" height="18" viewBox="0 0 18 18">
  <path id="_5282544_camera_instagram_social_media_social_network_instagram_logo_icon" data-name="5282544_camera_instagram_social media_social network_instagram logo_icon" d="M15.8,0A2.2,2.2,0,0,1,18,2.2V15.8A2.2,2.2,0,0,1,15.8,18H2.2A2.2,2.2,0,0,1,0,15.8V2.2A2.2,2.2,0,0,1,2.2,0H15.8ZM9,2.848c-1.671,0-1.88.007-2.537.037a4.515,4.515,0,0,0-1.493.286,3.146,3.146,0,0,0-1.8,1.8,4.517,4.517,0,0,0-.286,1.493c-.03.656-.037.866-.037,2.537s.007,1.88.037,2.537a4.517,4.517,0,0,0,.286,1.493,3.146,3.146,0,0,0,1.8,1.8,4.516,4.516,0,0,0,1.493.286c.656.03.866.037,2.537.037s1.88-.007,2.537-.037a4.516,4.516,0,0,0,1.493-.286,3.146,3.146,0,0,0,1.8-1.8,4.516,4.516,0,0,0,.286-1.493c.03-.656.037-.866.037-2.537s-.007-1.88-.037-2.537a4.516,4.516,0,0,0-.286-1.493,3.146,3.146,0,0,0-1.8-1.8,4.515,4.515,0,0,0-1.493-.286c-.656-.03-.866-.037-2.537-.037ZM9,3.956c1.643,0,1.837.006,2.486.036a3.406,3.406,0,0,1,1.142.212A2.037,2.037,0,0,1,13.8,5.372a3.4,3.4,0,0,1,.212,1.142c.03.649.036.843.036,2.486s-.006,1.837-.036,2.486a3.4,3.4,0,0,1-.212,1.142A2.037,2.037,0,0,1,12.628,13.8a3.4,3.4,0,0,1-1.142.212c-.649.03-.843.036-2.486.036s-1.837-.006-2.486-.036A3.4,3.4,0,0,1,5.372,13.8,2.037,2.037,0,0,1,4.2,12.628a3.405,3.405,0,0,1-.212-1.142c-.03-.649-.036-.843-.036-2.486s.006-1.837.036-2.486A3.405,3.405,0,0,1,4.2,5.372,2.037,2.037,0,0,1,5.372,4.2a3.406,3.406,0,0,1,1.142-.212c.649-.03.843-.036,2.486-.036ZM9,5.841A3.159,3.159,0,1,0,12.159,9,3.159,3.159,0,0,0,9,5.841Zm0,5.21A2.051,2.051,0,1,1,11.051,9,2.051,2.051,0,0,1,9,11.051Zm4.022-5.335a.738.738,0,1,1-.738-.738.738.738,0,0,1,.738.738Z" transform="translate(0 0)" fill="#998e86" fill-rule="evenodd"/>
</svg>
