<svg xmlns="http://www.w3.org/2000/svg" xmlns:xlink="http://www.w3.org/1999/xlink" width="543.959" height="458.644" viewBox="0 0 543.959 458.644">
  <defs>
    <clipPath id="clip-path">
      <rect id="Rectangle_84" data-name="Rectangle 84" width="543.959" height="458.644" transform="translate(340 1479)" fill="#fff" stroke="#707070" stroke-width="1"/>
    </clipPath>
    <clipPath id="clip-path-2">
      <rect id="Rectangle_93" data-name="Rectangle 93" width="699.284" height="491.888" fill="none"/>
    </clipPath>
    <clipPath id="clip-path-3">
      <rect id="Rectangle_85" data-name="Rectangle 85" width="69.094" height="139.532" fill="none"/>
    </clipPath>
    <clipPath id="clip-path-5">
      <rect id="Rectangle_88" data-name="Rectangle 88" width="128.441" height="44.424" fill="none"/>
    </clipPath>
    <clipPath id="clip-path-7">
      <rect id="Rectangle_86" data-name="Rectangle 86" width="128.443" height="44.424" fill="none"/>
    </clipPath>
    <clipPath id="clip-path-8">
      <rect id="Rectangle_90" data-name="Rectangle 90" width="83.779" height="33.279" fill="none"/>
    </clipPath>
    <clipPath id="clip-path-9">
      <rect id="Rectangle_89" data-name="Rectangle 89" width="83.779" height="33.278" fill="none"/>
    </clipPath>
    <linearGradient id="linear-gradient" x1="0.267" y1="0.743" x2="0.791" y2="0.367" gradientUnits="objectBoundingBox">
      <stop offset="0" stop-color="#271a13"/>
      <stop offset="1" stop-color="#301d15"/>
    </linearGradient>
    <clipPath id="clip-path-10">
      <path id="Path_2516" data-name="Path 2516" d="M834.685,204.852h0L788.605,356.76a3.922,3.922,0,0,0,2.367,4.87c.055.018.11.035.165.051l67.249,19.189a3.637,3.637,0,0,0,4.464-2.642L907.892,216.9a3.911,3.911,0,0,0-2.474-4.81,3.4,3.4,0,0,0-.531-.122L838.676,202.2a3.519,3.519,0,0,0-.511-.038,3.685,3.685,0,0,0-3.48,2.69" transform="translate(-788.429 -202.162)" fill="none"/>
    </clipPath>
    <clipPath id="clip-path-11">
      <rect id="Rectangle_92" data-name="Rectangle 92" width="530.646" height="345.364" fill="none"/>
    </clipPath>
  </defs>
  <g id="Mask_Group_1" data-name="Mask Group 1" transform="translate(-340 -1479)" clip-path="url(#clip-path)">
    <g id="Group_59" data-name="Group 59" transform="translate(172.411 1479)">
      <g id="Group_83" data-name="Group 83" clip-path="url(#clip-path-2)">
        <g id="Group_78" data-name="Group 78" transform="translate(0 12.227)">
          <g id="Group_63" data-name="Group 63" transform="translate(480.18 33.598)" opacity="0.01">
            <g id="Group_62" data-name="Group 62" transform="translate(0 0)">
              <g id="Group_61" data-name="Group 61" clip-path="url(#clip-path-3)">
                <g id="Group_60" data-name="Group 60">
                  <g id="Group_59-2" data-name="Group 59" clip-path="url(#clip-path-3)">
                    <path id="Path_2419" data-name="Path 2419" d="M957.493,80.958s-15.321-3.439-17.535,3.855S888.4,212.834,888.4,212.834l33.173,6.844Z" transform="translate(-888.398 -80.148)" fill="#040504"/>
                  </g>
                </g>
              </g>
            </g>
          </g>
          <g id="Group_71" data-name="Group 71" transform="translate(517.566 200.829)" opacity="0.04">
            <g id="Group_70" data-name="Group 70">
              <g id="Group_69" data-name="Group 69" clip-path="url(#clip-path-5)">
                <g id="Group_68" data-name="Group 68" opacity="0.25">
                  <g id="Group_67" data-name="Group 67">
                    <g id="Group_66" data-name="Group 66" clip-path="url(#clip-path-5)">
                      <g id="Group_65" data-name="Group 65">
                        <g id="Group_64" data-name="Group 64" clip-path="url(#clip-path-7)">
                          <path id="Path_2420" data-name="Path 2420" d="M1086.01,407.409s-.849,14.207-25.913,8.145c-43.536-10.53-96.1-20.707-96.1-20.707-9.524-10.982-5.649-11.591-5.649-11.591l6-10.622Z" transform="translate(-957.566 -372.635)" fill="#040504"/>
                        </g>
                      </g>
                    </g>
                  </g>
                </g>
              </g>
            </g>
          </g>
          <path id="Path_2421" data-name="Path 2421" d="M1066.763,268.77l-123.9-27.9c-5.586-1.258-9.15-7.07-7.96-12.979L982.131,47.406a10.361,10.361,0,0,1,12.269-8.42h0l115.24,16.746c5.586,1.258,9.15,7.069,7.961,12.978h0l-38.569,191.64a10.361,10.361,0,0,1-12.269,8.421h0Z" transform="translate(-429.48 -28.818)" fill="#d5cec0"/>
          <path id="Path_2422" data-name="Path 2422" d="M922.491,234.064l130.839,29.719a7.861,7.861,0,0,0,9.321-6.373l40.564-199.843a8.312,8.312,0,0,0-6.025-9.86L975.014,29.144a7.862,7.862,0,0,0-9.321,6.374L916.465,224.2a8.311,8.311,0,0,0,6.024,9.859h0" transform="translate(-421.033 -24.627)" fill="#f1ae55"/>
          <path id="Path_2423" data-name="Path 2423" d="M922.491,234.064l130.839,29.719a7.861,7.861,0,0,0,9.321-6.373l40.564-199.843a8.312,8.312,0,0,0-6.025-9.86L975.014,29.144a7.862,7.862,0,0,0-9.321,6.374L916.465,224.2a8.311,8.311,0,0,0,6.024,9.859h0" transform="translate(-421.033 -24.627)" fill="none" stroke="#e3a551" stroke-width="4"/>
          <path id="Path_2424" data-name="Path 2424" d="M1113.685,382.153c-18.847-4.468-37.591-9.5-56.322-14.489,1.96-10.6,4.651-21,7-31.5,18.859,4.432,38.114,6.636,57.042,10.722-2.682,11.731-5.5,23.426-7.723,35.266" transform="translate(-485.857 -156.188)" fill="#ebc495"/>
          <path id="Path_2425" data-name="Path 2425" d="M1122.76,371.229c-1.04-.233-1.56-.348-2.6-.578.526-2.5.8-3.747,1.339-6.238,1.01.2,1.514.3,2.525.505a1.616,1.616,0,0,1,1.467,2.009,1.457,1.457,0,0,1-1.262,1.238,1.541,1.541,0,0,1,.75,1.755,1.675,1.675,0,0,1-2.221,1.309m.3-2.684-.988-.212c-.118.554-.178.831-.3,1.385l1,.219a.642.642,0,0,0,.863-.525.678.678,0,0,0-.582-.867m.431-2.455-.895-.184c-.114.524-.171.787-.284,1.311l.893.188a.674.674,0,1,0,.285-1.315" transform="translate(-514.713 -168.285)" fill="#313133"/>
          <path id="Path_2426" data-name="Path 2426" d="M1132.8,373.588a3.378,3.378,0,0,1,1.42-6.552,3.38,3.38,0,0,1-1.42,6.552m.3-1.423c.9.2,1.641-.407,1.885-1.532.249-1.144-.179-1.994-1.079-2.186-.916-.2-1.649.4-1.9,1.533-.241,1.116.176,1.979,1.089,2.185" transform="translate(-519.474 -169.382)" fill="#313133"/>
          <path id="Path_2427" data-name="Path 2427" d="M1144.452,376.075a3.2,3.2,0,0,1-2.184-4,3.014,3.014,0,1,1,5.823,1.336,3.1,3.1,0,0,1-3.639,2.663m.313-1.446c.9.212,1.659-.4,1.912-1.546.257-1.164-.172-2.033-1.08-2.237-.924-.207-1.667.393-1.921,1.548-.249,1.136.168,2.019,1.088,2.234" transform="translate(-524.826 -170.396)" fill="#313133"/>
          <path id="Path_2428" data-name="Path 2428" d="M1155.238,375.066c-.259,1.162-.388,1.743-.643,2.9l-1.389-.338c.573-2.621.868-3.935,1.459-6.563l1.4.32c-.261,1.157-.391,1.735-.65,2.89,1.023-.974,1.538-1.464,2.573-2.444.662.154.994.233,1.658.39-1.2,1.088-1.791,1.63-2.973,2.71.622,1.568.933,2.356,1.558,3.932l-1.711-.424c-.514-1.354-.77-2.03-1.282-3.376" transform="translate(-529.897 -171.135)" fill="#313133"/>
          <path id="Path_2429" data-name="Path 2429" d="M1120.632,384.587a3.408,3.408,0,0,1-2.334-4.141,3.132,3.132,0,0,1,3.711-2.7,3.312,3.312,0,0,1,2.3,4.119c-.41,2.022-2.017,3.125-3.673,2.718m.289-1.489c.933.226,1.694-.4,1.931-1.576.241-1.193-.214-2.087-1.149-2.3-.952-.22-1.708.388-1.946,1.571a1.776,1.776,0,0,0,1.164,2.308" transform="translate(-513.818 -173.965)" fill="#313133"/>
          <path id="Path_2430" data-name="Path 2430" d="M1131.727,383.6c-.243,1.194-.362,1.792-.6,2.99l-1.427-.354c.525-2.7.8-4.051,1.367-6.74l1.436.333c-.25,1.184-.374,1.776-.617,2.963,1.028-1,1.544-1.5,2.584-2.5l1.695.4c-1.2,1.117-1.8,1.673-2.985,2.78.662,1.613,1,2.424,1.666,4.053l-1.75-.439c-.553-1.4-.829-2.1-1.376-3.483" transform="translate(-519.098 -174.743)" fill="#313133"/>
          <path id="Path_2431" data-name="Path 2431" d="M1144.076,388.753l-2.209-.555c-.239.447-.358.671-.594,1.118l-1.5-.378c1.391-2.514,2.1-3.772,3.553-6.3l1.68.4q.335,3.7.713,7.4l-1.531-.388c-.044-.52-.066-.78-.109-1.3m-.316-4.074c-.5.933-.754,1.4-1.251,2.327l1.46.365c-.086-1.077-.128-1.616-.209-2.692" transform="translate(-523.723 -176.088)" fill="#313133"/>
          <path id="Path_2432" data-name="Path 2432" d="M1153.8,384.344l1.659.408c.212,1.273.319,1.91.536,3.184.711-1.039,1.07-1.56,1.792-2.606l1.657.415c-1.256,1.649-1.876,2.468-3.1,4.1-.194.91-.289,1.364-.477,2.27l-1.458-.371c.186-.906.281-1.36.473-2.27-.441-2.052-.656-3.081-1.084-5.131" transform="translate(-530.17 -176.82)" fill="#313133"/>
          <path id="Path_2433" data-name="Path 2433" d="M1082.032,345.911q-3.831-.731-7.647-1.568-.9,3.985-1.836,7.959,3.833.87,7.683,1.666.9-4.027,1.8-8.058m-2.615,6.723c-2.214-.461-3.323-.7-5.544-1.188.529-2.284.8-3.428,1.322-5.751,2.211.476,3.316.7,5.526,1.135-.519,2.337-.783,3.493-1.3,5.8" transform="translate(-492.835 -159.69)" fill="#313133"/>
          <path id="Path_2434" data-name="Path 2434" d="M1081.649,349.829c-1.329-.268-1.993-.4-3.323-.687-.316,1.391-.475,2.082-.792,3.46,1.333.288,2,.429,3.329.706.314-1.387.472-2.082.785-3.479" transform="translate(-495.126 -161.745)" fill="#313133"/>
          <path id="Path_2435" data-name="Path 2435" d="M1102.923,349.586q-.9,4.11-1.8,8.217,3.819.77,7.637,1.542.914-4.205,1.833-8.41-3.835-.671-7.669-1.349m5.028,8.379c-2.208-.438-3.31-.655-5.517-1.091.52-2.378.783-3.565,1.3-5.95,2.211.4,3.317.594,5.534.99-.527,2.422-.795,3.631-1.321,6.052" transform="translate(-505.964 -161.935)" fill="#313133"/>
          <path id="Path_2436" data-name="Path 2436" d="M1110.175,354.963l-3.323-.605c-.314,1.436-.472,2.153-.786,3.587l3.318.643c.316-1.449.475-2.174.792-3.624" transform="translate(-508.236 -163.979)" fill="#313133"/>
          <path id="Path_2437" data-name="Path 2437" d="M1066.141,380.171q3.891,1,7.787,1.99c.507-2.76,1.025-5.515,1.6-8.26q-3.867-.9-7.728-1.827c-.6,2.687-1.157,5.389-1.663,8.1m2.5-6.729c2.244.544,3.361.81,5.586,1.336-.485,2.344-.72,3.525-1.164,5.943-2.234-.562-3.357-.845-5.617-1.422.458-2.386.7-3.549,1.2-5.857" transform="translate(-489.891 -171.566)" fill="#313133"/>
          <path id="Path_2438" data-name="Path 2438" d="M1071.067,380.491c1.353.341,2.027.509,3.371.844.274-1.438.415-2.148.7-3.559-1.34-.322-2.012-.484-3.36-.813-.292,1.4-.436,2.1-.714,3.528" transform="translate(-492.154 -173.659)" fill="#313133"/>
          <path id="Path_2439" data-name="Path 2439" d="M1074.026,360.718c-.872-.194-1.309-.292-2.181-.492-.1.452-.158.678-.262,1.13.874.2,1.311.3,2.183.5.1-.454.156-.681.26-1.135" transform="translate(-492.391 -166.492)" fill="#313133"/>
          <path id="Path_2440" data-name="Path 2440" d="M1082.016,364.016l1.107.24c-.1.441-.146.662-.243,1.1l-2.2-.483c-.013.062-.02.094-.035.157l-.219.99c-.1.457-.151.687-.25,1.145s-.15.69-.249,1.152l1.09.252h0l2.227.509c.1-.466.147-.7.247-1.163-.89-.2-1.334-.3-2.226-.5.1-.46.15-.69.25-1.149l2.225.495c-.1.461-.15.693-.249,1.156l1.085.243c.1-.464.148-.7.248-1.16.087-.4.13-.6.217-1,.014-.063.021-.1.035-.159l-1.116-.242c.2-.907.3-1.36.5-2.266l-1.084-.229v0l-1.106-.236c-.1.459-.154.689-.256,1.148" transform="translate(-496.227 -167.623)" fill="#313133"/>
          <path id="Path_2441" data-name="Path 2441" d="M1090.461,370.978c-.1.47-.15.7-.249,1.176l-1.082-.24c-.1.468-.148.7-.245,1.171l-1.083-.245-.244,1.175-1.057-.244c-.1.467-.145.7-.24,1.168l-1.086-.254c.191-.936.288-1.4.484-2.33l1.085.246c.1-.468.148-.7.246-1.167l1.084.242c.1-.466.147-.7.248-1.164l2.138.468" transform="translate(-498.636 -170.896)" fill="#313133"/>
          <path id="Path_2442" data-name="Path 2442" d="M1090.314,380.55c.09-.46.135-.689.226-1.147l.011-.053c.091-.458.137-.686.229-1.142l-1.08-.248c-.092.455-.138.682-.23,1.138l-3.291-.768c-.1.472-.143.709-.237,1.184l1.07.254c-.1.5-.149.757-.246,1.264l-1.071-.258c.1-.505.147-.758.248-1.26l-1.085-.258c-.1.492-.146.738-.243,1.232l-1.115-.269c-.093.474-.14.712-.23,1.189l1.115.273c-.09.47-.134.706-.222,1.179l-1.116-.277c-.177.946-.263,1.422-.432,2.382l1.117.282,1.034.262.053.014c.168-.965.254-1.444.43-2.4l1.072.265c.089-.485.134-.727.225-1.208l1.083.264c.183-.975.277-1.46.466-2.424l2.218.525" transform="translate(-497.461 -174.086)" fill="#313133"/>
          <path id="Path_2443" data-name="Path 2443" d="M1093.292,388.088c-.089.487-.133.731-.219,1.221l3.286.823c-.087.494-.13.742-.214,1.238l3.3.839c.086-.5.129-.75.216-1.248l-2.235-.561c.087-.5.13-.742.219-1.234s.133-.739.225-1.229l-1.077-.263c-.091.489-.136.734-.224,1.226l-3.28-.811" transform="translate(-502.265 -178.246)" fill="#313133"/>
          <path id="Path_2444" data-name="Path 2444" d="M1088.692,390.815l2.153.544c.085-.493.127-.739.214-1.229l-2.152-.538c-.087.487-.13.732-.215,1.223" transform="translate(-500.253 -179.068)" fill="#313133"/>
          <path id="Path_2445" data-name="Path 2445" d="M1094.955,370.449l2.253.491c.1-.473.15-.71.251-1.182l-2.254-.483c-.1.469-.151.7-.251,1.174" transform="translate(-503.13 -170.367)" fill="#313133"/>
          <path id="Path_2446" data-name="Path 2446" d="M1108.085,371.619c-.1.478-.15.717-.249,1.2l1.073.24c-.1.487-.151.731-.25,1.22l-1.076-.245c.1-.487.149-.73.249-1.216l-1.077-.24c-.1.484-.15.726-.249,1.211l-1.077-.245c.1-.484.148-.724.248-1.206l-1.071-.238c.2-.953.3-1.428.5-2.377l2.138.455.249-1.168-1.106-.233c.1-.479.154-.719.257-1.2l2.187.451c-.1.482-.155.723-.258,1.206s-.15.7-.25,1.176l1.123.242c-.1.484-.154.728-.255,1.213l-1.106-.244" transform="translate(-507.565 -169.639)" fill="#313133"/>
          <path id="Path_2447" data-name="Path 2447" d="M1091.831,374.316c-.1.471-.146.706-.243,1.178l1.082.249c.1-.472.145-.708.243-1.18l1.081.245c.1-.474.147-.711.246-1.184l-1.081-.24c-.1.47-.148.7-.245,1.176l-1.082-.245" transform="translate(-501.583 -172.127)" fill="#313133"/>
          <path id="Path_2448" data-name="Path 2448" d="M1091.7,385.81c-.091.483-.136.726-.225,1.212l1.082.267c.089-.488.134-.731.225-1.216l-1.082-.264" transform="translate(-501.532 -177.448)" fill="#313133"/>
          <path id="Path_2449" data-name="Path 2449" d="M1103.528,389.824l1.074.268c.089-.5.135-.743.226-1.236l-1.075-.264c-.091.492-.136.738-.225,1.232" transform="translate(-507.07 -178.639)" fill="#313133"/>
          <path id="Path_2450" data-name="Path 2450" d="M1098.417,374.252c-.1.475-.148.712-.246,1.188l1.079.244c.1-.477.148-.716.246-1.192l-1.079-.24" transform="translate(-504.608 -172.498)" fill="#313133"/>
          <path id="Path_2451" data-name="Path 2451" d="M1099.587,368.375l1.08.232c.1-.461.147-.692.246-1.152l2.18.457c.1-.477.153-.716.256-1.193l-3.261-.671c-.1.472-.153.708-.255,1.18s-.148.688-.246,1.148" transform="translate(-505.259 -168.985)" fill="#313133"/>
          <path id="Path_2452" data-name="Path 2452" d="M1071.539,364.433l-1.094-.253c-.312,1.356-.466,2.035-.771,3.4l1.1.262c.3-1.368.456-2.047.766-3.408" transform="translate(-491.514 -168.185)" fill="#313133"/>
          <path id="Path_2453" data-name="Path 2453" d="M1089.395,357.111l.037.007c-.2.907-.3,1.361-.5,2.27l1.084.234c.1-.48.156-.72.26-1.2l1.083.229c.094-.433.141-.65.236-1.082l1.61.333v0l.6.125c.41-1.883.617-2.822,1.032-4.706l-1.082-.208-.269,1.216-1.132-.222-.254,1.149,1.132.226-.258,1.172-1.131-.23.257-1.168-1.082-.218c-.1.466-.155.7-.258,1.164l-1.114-.229c.309-1.4.465-2.092.776-3.489l1.083.212c.415-1.867.623-2.8,1.034-4.683l-1.082-.2c-.1.469-.155.7-.258,1.172l-1.083-.206c-.206.935-.31,1.4-.517,2.33l1.083.211c-.1.459-.153.688-.255,1.146l-1.083-.214c-.415,1.856-.623,2.78-1.034,4.632l1.079.227v0" transform="translate(-500.08 -161.175)" fill="#313133"/>
          <path id="Path_2454" data-name="Path 2454" d="M1103.339,379.658c-.1.511-.151.767-.25,1.279l-1.075-.257c.1-.511.149-.766.249-1.275l-1.076-.253c.191-.966.288-1.447.484-2.408l-1.07-.242c.1-.481.148-.722.247-1.2l-1.078-.24c-.1.484-.151.726-.25,1.211l-1.072-.242c-.289,1.407-.431,2.113-.708,3.535l-1.081-.256c-.094.481-.141.722-.232,1.2l.979.236c-.095.494-.141.742-.234,1.238l1.164.284c.092-.5.139-.746.233-1.242l1.077.26c.092-.489.139-.733.233-1.22v0l1.076.256v0c-.095.487-.141.731-.234,1.22l1.075.26c-.095.5-.142.751-.235,1.253l1.074.264c-.182.984-.271,1.477-.444,2.471l1.072.27c.435-2.487.667-3.714,1.148-6.153l-1.075-.254m-3.221-.8-1.062-.248c.092-.464.138-.7.231-1.157l1.063.244c-.094.464-.14.7-.232,1.161" transform="translate(-503.807 -172.845)" fill="#313133"/>
          <path id="Path_2455" data-name="Path 2455" d="M1107.225,380.85l1.076.253c.192-.972.289-1.457.486-2.424l-1.076-.245c-.2.964-.293,1.447-.485,2.416" transform="translate(-508.768 -174.289)" fill="#313133"/>
          <path id="Path_2456" data-name="Path 2456" d="M1103.264,386.212c-.095.5-.141.748-.234,1.249l-1.076-.263c.093-.5.139-.749.234-1.246l1.076.26" transform="translate(-506.346 -177.509)" fill="#313133"/>
          <path id="Path_2457" data-name="Path 2457" d="M1099.712,350.084l.254-1.163-1.074-.194-.828-.15-.305-.055c-.208.951-.312,1.425-.521,2.372l1.132.212c.107-.487.16-.73.267-1.217l1.075.2" transform="translate(-504.18 -161.479)" fill="#313133"/>
          <path id="Path_2458" data-name="Path 2458" d="M1096.551,354.685c-.1.461-.153.691-.255,1.152l1.132.218c.1-.461.153-.692.255-1.155l-1.132-.215" transform="translate(-503.747 -164.119)" fill="#313133"/>
          <path id="Path_2459" data-name="Path 2459" d="M1100.248,353.249l-1.132-.21c-.1.463-.153.694-.255,1.156l1.132.214c.1-.464.153-.7.255-1.16" transform="translate(-504.925 -163.414)" fill="#313133"/>
          <path id="Path_2460" data-name="Path 2460" d="M1076.851,370.881c.1-.46.15-.69.25-1.149l-1.091-.252c-.1.458-.151.687-.251,1.145l1.093.255" transform="translate(-494.309 -170.455)" fill="#313133"/>
          <path id="Path_2461" data-name="Path 2461" d="M1076.625,365.268c.3-1.373.458-2.058.768-3.428l-1.088-.238c-.1.434-.148.651-.246,1.084l-1.09-.244c-.31,1.363-.465,2.043-.769,3.412l1.093.253c.1-.435.144-.652.241-1.087l1.091.248" transform="translate(-493.594 -167.081)" fill="#313133"/>
          <g id="Group_76" data-name="Group 76" transform="translate(438.292 197.411)" opacity="0.04">
            <g id="Group_75" data-name="Group 75">
              <g id="Group_74" data-name="Group 74" clip-path="url(#clip-path-8)">
                <g id="Group_73" data-name="Group 73">
                  <g id="Group_72" data-name="Group 72" clip-path="url(#clip-path-9)">
                    <path id="Path_2462" data-name="Path 2462" d="M894.677,389.139l-.518,10.8c-37.682-9.273-83.259-18.708-83.259-18.708l1.454-6.276,2.551-8.294Z" transform="translate(-810.899 -366.656)" fill="#040504"/>
                  </g>
                </g>
              </g>
            </g>
          </g>
          <path id="Path_2463" data-name="Path 2463" d="M895.931,341.306l-75.109-18.567,20.944-75.129,77.054,12.439Z" transform="translate(-377.167 -118.264)" fill="#f1ae55"/>
          <path id="Path_2464" data-name="Path 2464" d="M496.76,514.09,357.452,594.005l57.563,49.441L535.41,572.478Z" transform="translate(-164.249 -232.383)" fill="#cc8d73"/>
          <path id="Path_2465" data-name="Path 2465" d="M306.335,529.144l62.887,73.237L212.048,680.747l-30-88Z" transform="translate(0 -238.83)" fill="url(#linear-gradient)"/>
          <path id="Path_2466" data-name="Path 2466" d="M747.405,476.858c-3.923.154-5.069-2.687-6.182-2.687-3.415,1.4-8.27,3.65-15.124-1.777,0,0-1.617-3.2-1.972-2.843-2.908,2.926-11.709,21.555-27.855,25.863-15.941,4.258-36.018,10.292-46.073,14.776h0s0,0-.007,0c-.4.18-.786.357-1.155.53l-38.6-58.312-.054-.081s47.12-33.777,62.266-49.959c14.01-14.974,29.84-28.44,47.182-34.023q2.6-.845,5.254-1.435c.4-.092.807-.18,1.214-.258l-10.053,32.688-1.1,3.581-1.844,6c.657-.085,1.318-.166,1.976-.247,7.01-.872,17.5-3.367,22.151,5.966a16.3,16.3,0,0,1,.731,12.277c-1.567,4.512-4.979,7.765-8.5,10.341-.219.162-.438.32-.658.479l21.35,6.094c-.083,1.811-.17,3.415-.251,4.777-.069,1.185-.136,2.182-.187,2.966.594-1.87,2.086-.168,4.643.343,2.395.479,5.358.977,5.042,2.349-.668,2.911,1.146,8.5-2.572,17.133l-4.824,5.05Z" transform="translate(-280.469 -169.245)" fill="#cc8d73"/>
          <path id="Path_2467" data-name="Path 2467" d="M705.9,577.932a32.843,32.843,0,0,1-27.053-9.4c-.976-.975-2.455.583-1.476,1.561a35.246,35.246,0,0,0,21.79,10.177,32,32,0,0,0,6.739-.131,1.109,1.109,0,0,0,1.044-1.1,1.082,1.082,0,0,0-1.044-1.1" transform="translate(-311.105 -255.564)" fill="#bb7e66"/>
          <path id="Path_2468" data-name="Path 2468" d="M868.712,557.37c.124-.057-.108.085,0,0" transform="translate(-399.158 -250.912)" fill="#d27c60"/>
          <path id="Path_2469" data-name="Path 2469" d="M842.135,539.573c-2.656-.361-4.275-1.487-6.182-3.473-.015-.015-.029-.033-.044-.048a4.652,4.652,0,0,1-.725,1.029,7.689,7.689,0,0,1-2.537,1.821,10.556,10.556,0,0,1-6.388.651c-4.622-.915-8.351-5.034-9.481-9.789-1.427-5.135,4.2-13.959,4.258-15.343a7.165,7.165,0,0,1,.29-1.91,2.058,2.058,0,0,1,.562-.936,1.959,1.959,0,0,1,.819-.29.76.76,0,0,1,.8.365,3.854,3.854,0,0,1,.418.7,2.82,2.82,0,0,1,.066,1.151c-.054.585-.188,1.143-.206,1.739-.025,1.265-5.646,8.192-4.087,14.947A10.723,10.723,0,0,0,824.033,536a8.382,8.382,0,0,0,6.685,1.086,7.408,7.408,0,0,0,2.921-1.539,12.1,12.1,0,0,1,1.052-.966,16.982,16.982,0,0,1-2.521-5.74,20.156,20.156,0,0,1-.079-8.29,38.993,38.993,0,0,1,1.152-4.517c.426-1.382.733-3.224,2.281-3.545a.717.717,0,0,1,.742.339,3.6,3.6,0,0,1,0,3.283c-.354,1.063-.687,2.137-.963,3.235a22.068,22.068,0,0,0-.771,6.854c.263,3.986,3.662,9.72,7.6,11.458" transform="translate(-375.202 -231.176)" fill="#bb7e66"/>
          <path id="Path_2470" data-name="Path 2470" d="M798.1,423.825l-1.1,3.581c-.042.018-.084.037-.125.057-.355.18-.706.368-1.051.567v0a24.443,24.443,0,0,0-4.172,2.988c-.591.512-1.172,1.071-2,.95a1.185,1.185,0,0,1-.157-.026c-.205-.048-1.243-.56-.894-.979.378-.453.661-.986,1.019-1.468a12.211,12.211,0,0,1,1.2-1.34,11.159,11.159,0,0,1,.939-.817,23.5,23.5,0,0,1,5.03-2.955c.054-.022.108-.048.162-.07.378-.171.765-.331,1.148-.493" transform="translate(-362.328 -193.727)" fill="#bb7e66"/>
          <path id="Path_2471" data-name="Path 2471" d="M957.832,434.553l-7.393,22.838c-.982.749,16.287,4.917,18.735-6.278,2.362-10.8-11.341-16.559-11.341-16.559" transform="translate(-436.707 -198.322)" fill="#cc8d73"/>
          <path id="Path_2472" data-name="Path 2472" d="M959.917,436.243c14.377,4.426,15.961,25.594-7.6,23.693" transform="translate(-437.588 -199.046)" fill="none" stroke="#bb7e66" stroke-miterlimit="10" stroke-width="3"/>
          <path id="Path_2473" data-name="Path 2473" d="M863.889,545.771s13.4,1.974,13.1-23.752" transform="translate(-397.939 -238.46)" fill="none" stroke="#bb7e66" stroke-miterlimit="10" stroke-width="3"/>
          <path id="Path_2474" data-name="Path 2474" d="M922.162,349.591c-17.487-4.51-34.633-10.368-52.106-14.959,2.867-9.986,6.926-19.5,9.313-29.642,17.715,4.283,35.787,6.731,53.6,10.525-3.891,11.279-8.44,22.288-10.807,34.075" transform="translate(-399.79 -142.837)" fill="#ebc495"/>
          <path id="Path_2475" data-name="Path 2475" d="M934.071,337.5c-1.053-.26-1.579-.388-2.63-.644.872-2.65,1.325-3.968,2.192-6.625,1.031.217,1.546.326,2.58.548a1.535,1.535,0,0,1,1.282,2.155,1.792,1.792,0,0,1-1.485,1.314,1.505,1.505,0,0,1,.552,1.88,1.962,1.962,0,0,1-2.493,1.372m.672-2.856-1-.233c-.2.588-.295.882-.49,1.471l1.016.243a.752.752,0,0,0,.97-.552.645.645,0,0,0-.492-.929m.768-2.615-.912-.2c-.185.558-.278.837-.464,1.4l.909.205a.732.732,0,0,0,.94-.537.59.59,0,0,0-.473-.864" transform="translate(-427.996 -153.647)" fill="#313133"/>
          <path id="Path_2476" data-name="Path 2476" d="M944.505,340.109c-1.624-.412-2.456-2.176-1.77-4.211a3.763,3.763,0,0,1,4.146-2.809c1.66.368,2.494,2.134,1.778,4.217s-2.531,3.215-4.155,2.8m.511-1.523c.917.226,1.788-.419,2.2-1.627.419-1.227.077-2.144-.849-2.354-.942-.216-1.793.417-2.2,1.629-.4,1.194-.082,2.122.851,2.352" transform="translate(-433.075 -154.841)" fill="#313133"/>
          <path id="Path_2477" data-name="Path 2477" d="M956.493,342.889c-1.672-.432-2.513-2.248-1.8-4.336a3.858,3.858,0,0,1,4.286-2.851c1.709.395,2.563,2.216,1.814,4.344s-2.632,3.274-4.3,2.843m.532-1.559c.944.238,1.847-.416,2.279-1.652.439-1.255.091-2.2-.862-2.425-.97-.23-1.85.413-2.279,1.656-.423,1.223-.1,2.178.862,2.421" transform="translate(-438.564 -155.957)" fill="#313133"/>
          <path id="Path_2478" data-name="Path 2478" d="M968,341.873c-.446,1.258-.667,1.887-1.1,3.143l-1.478-.382c.815-2.372,1.654-4.735,2.5-7.1l1.5.355c-.448,1.253-.672,1.879-1.117,3.129,1.265-1.048,1.9-1.575,3.2-2.634l1.812.433c-1.5,1.175-2.242,1.76-3.7,2.922.477,1.706.717,2.563,1.216,4.282l-1.857-.476c-.394-1.475-.585-2.211-.965-3.675" transform="translate(-443.609 -156.775)" fill="#313133"/>
          <path id="Path_2479" data-name="Path 2479" d="M930.376,351.749c-1.67-.473-2.6-2.366-1.942-4.478a3.668,3.668,0,0,1,4.2-2.818c1.693.425,2.544,2.278,1.87,4.444s-2.456,3.325-4.125,2.852m.463-1.6c.941.261,1.8-.4,2.191-1.655.4-1.276.039-2.238-.907-2.483-.963-.249-1.826.386-2.218,1.645-.385,1.238-.023,2.227.935,2.492" transform="translate(-426.517 -159.699)" fill="#313133"/>
          <path id="Path_2480" data-name="Path 2480" d="M941.721,350.831c-.4,1.284-.589,1.927-.956,3.222l-1.449-.414c.685-2.427,1.443-4.842,2.239-7.23l1.464.376c-.419,1.269-.626,1.9-1.026,3.177,1.2-1.057,1.808-1.588,3.042-2.656l1.745.453c-1.427,1.189-2.13,1.779-3.509,2.955.5,1.752.759,2.638,1.3,4.424l-1.8-.511c-.438-1.531-.648-2.29-1.056-3.8" transform="translate(-431.615 -160.574)" fill="#313133"/>
          <path id="Path_2481" data-name="Path 2481" d="M954.206,356.621c-.929-.257-1.389-.386-2.305-.642-.3.483-.452.724-.748,1.208l-1.553-.44c1.453-2.3,2.974-4.557,4.527-6.78l1.758.46c-.088,2.682-.125,5.377-.078,8.061l-1.614-.447c0-.569,0-.853.012-1.42m.129-4.432c-.658,1-.983,1.5-1.618,2.506l1.524.42c.028-1.173.048-1.758.094-2.926" transform="translate(-436.34 -162.098)" fill="#313133"/>
          <path id="Path_2482" data-name="Path 2482" d="M965.684,351.9l1.771.461c.071,1.385.11,2.079.2,3.468.906-1.124,1.369-1.688,2.308-2.818.719.186,1.081.279,1.811.465-1.623,1.783-2.415,2.669-3.94,4.437-.309.991-.458,1.486-.745,2.475-.632-.168-.946-.253-1.571-.421.286-.99.435-1.484.742-2.474-.267-2.243-.376-3.364-.578-5.594" transform="translate(-443.656 -162.928)" fill="#313133"/>
          <path id="Path_2483" data-name="Path 2483" d="M897.871,314.572q-3.622-.72-7.23-1.527c-.667,2.548-1.449,5.086-2.293,7.574q3.6.814,7.2,1.588c.838-2.516,1.629-5.069,2.319-7.636m-2.967,6.381c-2.058-.441-3.1-.665-5.2-1.134.7-2.143,1.041-3.227,1.66-5.466,2.106.462,3.148.679,5.216,1.1-.629,2.241-.973,3.333-1.674,5.5" transform="translate(-408.195 -146.287)" fill="#313133"/>
          <path id="Path_2484" data-name="Path 2484" d="M897.565,318.337c-1.245-.258-1.871-.391-3.131-.663-.385,1.332-.587,1.987-1,3.285,1.259.276,1.884.41,3.126.675.414-1.305.617-1.963,1.005-3.3" transform="translate(-410.531 -148.269)" fill="#313133"/>
          <path id="Path_2485" data-name="Path 2485" d="M917.23,318.149c-.732,2.611-1.548,5.206-2.4,7.776q3.45.743,6.9,1.5c.88-2.639,1.736-5.294,2.521-7.966q-3.51-.657-7.02-1.314m3.9,7.975c-1.991-.428-2.987-.64-4.99-1.063.725-2.232,1.084-3.351,1.749-5.629l5.054.963c-.695,2.31-1.066,3.452-1.812,5.729" transform="translate(-420.363 -148.472)" fill="#313133"/>
          <path id="Path_2486" data-name="Path 2486" d="M923.862,323.3l-3.028-.589c-.413,1.365-.627,2.043-1.06,3.393,1.2.249,1.8.374,3.005.625.441-1.365.66-2.05,1.083-3.429" transform="translate(-422.635 -150.428)" fill="#313133"/>
          <path id="Path_2487" data-name="Path 2487" d="M879.192,346.572q3.671.949,7.333,1.94c.691-2.58,1.483-5.147,2.326-7.676q-3.616-.88-7.234-1.749c-.864,2.47-1.69,4.969-2.425,7.485m3.1-6.217c2.124.518,3.168.772,5.229,1.281-.706,2.167-1.052,3.26-1.692,5.516-2.078-.552-3.131-.827-5.281-1.382.666-2.217,1.023-3.288,1.743-5.415" transform="translate(-403.987 -157.439)" fill="#313133"/>
          <path id="Path_2488" data-name="Path 2488" d="M884.3,346.885c1.279.328,1.912.492,3.165.818.4-1.337.6-1.994,1.024-3.3-1.247-.312-1.876-.467-3.147-.782-.427,1.29-.636,1.94-1.042,3.262" transform="translate(-406.333 -159.381)" fill="#313133"/>
          <path id="Path_2489" data-name="Path 2489" d="M889.454,328.591c-.821-.185-1.234-.277-2.064-.467-.143.421-.215.632-.359,1.051.831.19,1.244.285,2.066.471.144-.422.215-.633.358-1.056" transform="translate(-407.589 -152.744)" fill="#313133"/>
          <path id="Path_2490" data-name="Path 2490" d="M896.406,331.7l1.025.229c-.137.41-.206.615-.344,1.025l-2.034-.463-.049.145-.311.917-.358,1.059c-.144.425-.216.638-.359,1.064h0l1.011.241h0l2.056.492c.142-.432.214-.647.357-1.077l-2.054-.483c.143-.426.215-.638.358-1.063l2.054.475c-.143.428-.215.642-.358,1.071l1,.235c.143-.43.215-.645.358-1.075.124-.373.186-.559.31-.931l.05-.148-1.025-.233c.282-.842.423-1.263.7-2.107l-1-.22v0l-1.025-.226c-.142.428-.214.641-.357,1.068" transform="translate(-410.78 -153.82)" fill="#313133"/>
          <path id="Path_2491" data-name="Path 2491" d="M903.7,338.246c-.144.437-.216.655-.36,1.093l-.984-.234c-.143.434-.214.651-.356,1.087l-.988-.239c-.142.435-.213.652-.354,1.089l-.968-.238c-.14.432-.21.648-.349,1.082l-1-.249c.278-.867.419-1.3.7-2.158l1,.239c.142-.433.214-.649.357-1.081l.992.235c.143-.432.215-.648.358-1.08l1.949.454" transform="translate(-412.789 -156.884)" fill="#313133"/>
          <path id="Path_2492" data-name="Path 2492" d="M902.288,347.2c.13-.429.2-.643.329-1.069l.015-.049c.134-.427.2-.639.335-1.064l-.977-.245c-.135.423-.2.635-.335,1.059-1.19-.3-1.788-.454-2.993-.755-.139.438-.208.658-.345,1.1l.977.25c-.145.469-.217.7-.359,1.177l-.978-.255c.143-.47.215-.7.36-1.172l-.994-.253c-.143.456-.213.685-.353,1.144l-1.024-.264c-.135.44-.2.661-.335,1.1l1.026.268c-.13.438-.194.658-.32,1.1L895.291,349c-.255.882-.379,1.327-.619,2.228l1.03.281.95.261.049.014c.237-.907.36-1.356.612-2.245l.979.264c.128-.453.193-.679.324-1.129l.986.262c.264-.911.4-1.362.676-2.26.807.208,1.209.312,2.01.521" transform="translate(-411.101 -159.873)" fill="#313133"/>
          <path id="Path_2493" data-name="Path 2493" d="M904.751,354.256c-.127.456-.189.686-.312,1.146,1.2.332,1.79.5,2.973.832-.122.467-.181.7-.3,1.171,1.2.342,1.789.515,2.974.86.116-.476.175-.712.3-1.184-.8-.23-1.2-.345-2.008-.573.122-.468.183-.7.309-1.165s.19-.7.32-1.157l-.969-.266c-.13.459-.194.69-.32,1.152-1.18-.328-1.772-.491-2.965-.817" transform="translate(-415.589 -163.792)" fill="#313133"/>
          <path id="Path_2494" data-name="Path 2494" d="M900.251,356.716c.789.219,1.181.329,1.963.549.118-.465.179-.7.3-1.158-.781-.217-1.172-.325-1.96-.54-.124.457-.185.687-.3,1.149" transform="translate(-413.664 -164.496)" fill="#313133"/>
          <path id="Path_2495" data-name="Path 2495" d="M908.256,337.768l2.043.479c.145-.441.218-.661.363-1.1l-2.045-.47-.361,1.091" transform="translate(-417.342 -156.407)" fill="#313133"/>
          <path id="Path_2496" data-name="Path 2496" d="M919.991,339c-.146.447-.218.67-.363,1.118l.961.238c-.148.456-.221.685-.366,1.142l-.963-.245c.145-.455.218-.683.364-1.137l-.965-.239c-.146.452-.219.679-.363,1.132l-.965-.243c.144-.451.216-.676.362-1.127l-.962-.235c.288-.889.433-1.332.725-2.218l1.923.449c.144-.437.216-.656.36-1.093l-.995-.228.369-1.119,1.969.442c-.15.452-.224.678-.374,1.13h0l-.363,1.1,1.008.24c-.149.454-.224.681-.372,1.135l-.991-.241" transform="translate(-421.237 -155.771)" fill="#313133"/>
          <path id="Path_2497" data-name="Path 2497" d="M904.809,341.35c-.142.437-.213.655-.354,1.094l.984.244c.141-.439.211-.658.353-1.1l.98.24c.143-.441.215-.66.358-1.1l-.982-.235c-.143.436-.214.655-.356,1.092l-.984-.239" transform="translate(-415.596 -158.043)" fill="#313133"/>
          <path id="Path_2498" data-name="Path 2498" d="M903.522,352.056c-.131.452-.2.678-.323,1.134l.983.268c.127-.457.191-.685.322-1.138l-.982-.263" transform="translate(-415.019 -162.993)" fill="#313133"/>
          <path id="Path_2499" data-name="Path 2499" d="M914.084,356.011l.964.272c.125-.468.189-.7.319-1.166l-.963-.267c-.13.463-.194.695-.319,1.161" transform="translate(-420.02 -164.189)" fill="#313133"/>
          <path id="Path_2500" data-name="Path 2500" d="M911.03,341.345c-.144.441-.216.662-.358,1.1l.974.24c.143-.444.215-.666.359-1.11l-.975-.235" transform="translate(-418.453 -158.406)" fill="#313133"/>
          <path id="Path_2501" data-name="Path 2501" d="M912.707,335.873l.977.225.355-1.074,1.968.447c.147-.446.221-.668.368-1.115-1.177-.262-1.766-.392-2.95-.654l-.364,1.1-.354,1.07" transform="translate(-419.388 -155.133)" fill="#313133"/>
          <path id="Path_2502" data-name="Path 2502" d="M886.467,332.037l-1.037-.24c-.436,1.257-.656,1.883-1.093,3.141l1.04.248c.436-1.261.655-1.889,1.09-3.149" transform="translate(-406.352 -154.317)" fill="#313133"/>
          <path id="Path_2503" data-name="Path 2503" d="M903.875,325.212l.034.007c-.28.846-.421,1.268-.7,2.111l.992.226.371-1.114.99.221c.133-.4.2-.605.334-1.009l1.468.322v0l.549.121c.579-1.758.869-2.638,1.427-4.415l-.991-.2c-.143.46-.216.689-.362,1.146l-1.036-.215c-.138.433-.207.648-.347,1.079l1.034.218c-.142.44-.213.659-.357,1.1l-1.033-.222c.143-.437.214-.655.356-1.093l-.993-.21c-.141.436-.212.654-.355,1.089l-1.023-.22c.428-1.3.639-1.957,1.05-3.277l1,.2c.549-1.762.816-2.651,1.313-4.46l-1.005-.2c-.123.452-.186.677-.314,1.125l-1.006-.2c-.253.9-.384,1.339-.651,2.221l1,.2c-.132.435-.2.652-.333,1.084l-1-.206c-.544,1.753-.829,2.617-1.4,4.342l.992.218v0" transform="translate(-414.874 -147.732)" fill="#313133"/>
          <path id="Path_2504" data-name="Path 2504" d="M914.6,346.5c-.146.478-.218.719-.361,1.2l-.962-.259c.143-.48.215-.719.36-1.195l-.964-.253c.277-.9.419-1.353.7-2.25l-.96-.241c.143-.449.216-.674.361-1.122l-.97-.236c-.146.451-.219.676-.364,1.129l-.965-.239c-.421,1.31-.629,1.967-1.031,3.295l-.976-.255c-.137.448-.2.673-.337,1.125l.884.235c-.136.463-.2.694-.336,1.16l1.049.286c.132-.468.2-.7.336-1.165l.968.261c.134-.458.2-.687.338-1.142v0l.966.257,0-.005v.005c-.137.456-.2.685-.337,1.144l.963.262c-.136.47-.2.706-.335,1.179l.962.268c-.258.927-.383,1.394-.623,2.336l.96.278c.6-2.362.935-3.516,1.632-5.806l-.962-.254m-2.882-.8-.955-.248c.134-.433.2-.648.337-1.079l.956.242c-.136.433-.2.649-.338,1.084" transform="translate(-417.289 -158.747)" fill="#313133"/>
          <path id="Path_2505" data-name="Path 2505" d="M918.319,347.622l.963.254c.278-.912.42-1.365.708-2.27l-.964-.244c-.287.9-.429,1.352-.707,2.26" transform="translate(-421.966 -160.126)" fill="#313133"/>
          <path id="Path_2506" data-name="Path 2506" d="M914.189,352.6c-.136.468-.2.7-.335,1.174l-.966-.267c.132-.469.2-.7.336-1.169l.966.262" transform="translate(-419.471 -163.114)" fill="#313133"/>
          <path id="Path_2507" data-name="Path 2507" d="M914.672,318.615c.129-.444.192-.667.317-1.114l-.991-.189-.764-.146-.282-.054c-.252.914-.383,1.367-.65,2.268l1.042.205c.138-.463.206-.7.34-1.161l.989.19" transform="translate(-419.201 -148.028)" fill="#313133"/>
          <path id="Path_2508" data-name="Path 2508" d="M911.406,322.993c-.133.437-.2.655-.336,1.089l1.038.212c.136-.436.2-.654.338-1.092l-1.04-.208" transform="translate(-418.635 -150.547)" fill="#313133"/>
          <path id="Path_2509" data-name="Path 2509" d="M914.988,321.641l-1.04-.2c-.131.44-.2.66-.331,1.1l1.037.207c.135-.439.2-.659.333-1.1" transform="translate(-419.806 -149.881)" fill="#313133"/>
          <path id="Path_2510" data-name="Path 2510" d="M891.1,338.035c.144-.425.216-.637.36-1.061l-1.022-.24c-.144.423-.217.634-.361,1.057l1.022.244" transform="translate(-408.99 -156.431)" fill="#313133"/>
          <path id="Path_2511" data-name="Path 2511" d="M891.237,332.836c.433-1.27.65-1.9,1.078-3.181l-1.019-.228c-.136.4-.2.606-.341,1.009l-1.025-.233c-.431,1.266-.65,1.9-1.085,3.16l1.027.241c.138-.4.206-.6.344-1.005l1.02.236" transform="translate(-408.423 -153.303)" fill="#313133"/>
          <path id="Path_2512" data-name="Path 2512" d="M916.167,220.407l-47.92,169.863a3.942,3.942,0,0,1-5.517,2.6l-29.408-8.943-.824-.25-.919-.28-1.068-.324-.042-.015-13.985-4.25-2.9-.883-10.663-3.242-1.3-.4-2.209-.674h0l-3.058-.927-1.325-.4-5.581-1.7a5.839,5.839,0,0,1-3.34-5.914,5.159,5.159,0,0,1,.184-.883h0l1.325-4.317,5.567-18.1.351-1.143.508-1.645c.658-.085,1.319-.166,1.976-.246,7.01-.872,17.5-3.367,22.151,5.966a16.3,16.3,0,0,1,.731,12.277c-1.568,4.512-4.979,7.765-8.5,10.341-.219.162-.438.32-.657.479l21.35,6.094,26.221,7.482a3.632,3.632,0,0,0,4.464-2.639L906.809,217a3.913,3.913,0,0,0-2.478-4.811,3.5,3.5,0,0,0-.528-.121l-65.378-9.646a3.746,3.746,0,0,1,1.207.092l69.935,10.341-.96-2.937,2.752-.276h0l4.049,6.118-.014,0a5.684,5.684,0,0,1,.769,4.641" transform="translate(-361.198 -98.908)" fill="#100c12"/>
          <path id="Path_2513" data-name="Path 2513" d="M907.921,205.054h0a5.266,5.266,0,0,0-3.3-2.385l-72.493-10.879A3.906,3.906,0,0,0,827.5,194.6l-30.386,98.813-10.864,35.33-1.172,3.812-.678,2.208-.449,1.454-.4,1.315-4.666,15.17s0,0,0,0l-.108.353a5.815,5.815,0,0,0,3.155,6.8l0,0,.72.221,15.08,4.585,1.6.485,2.345.71s0,0,0,0l10.284,3.128.79.243,14.633,4.449,27.839,8.462c2.359,1.012,53.438-172.465,53.438-172.465a5.711,5.711,0,0,0-.744-4.622m-4.554,7.357L858.324,373.742a3.632,3.632,0,0,1-4.463,2.639L827.639,368.9l-21.35-6.094c.219-.158.438-.317.658-.479,3.521-2.576,6.93-5.832,8.5-10.341a16.3,16.3,0,0,0-.731-12.277c-4.651-9.333-15.14-6.838-22.151-5.966-.658.081-1.319.162-1.976.246l1.844-6,1.1-3.581,10.053-32.688,27.979-90.986a3.983,3.983,0,0,1,3.42-2.9l65.378,9.646a3.844,3.844,0,0,1,3.12,4.374,4.06,4.06,0,0,1-.114.557" transform="translate(-357.757 -94.315)" fill="#170f1e"/>
          <rect id="Rectangle_91" data-name="Rectangle 91" width="530.648" height="349.694" transform="translate(157.702 0)" fill="none"/>
        </g>
        <g id="Group_80" data-name="Group 80" transform="translate(426.147 115.587)">
          <g id="Group_79" data-name="Group 79" clip-path="url(#clip-path-10)">
            <path id="Path_2514" data-name="Path 2514" d="M934.7,239l-78.38-15.952L867.362,191.7,944,205.492Z" transform="translate(-819.625 -197.68)" fill="#040504"/>
            <path id="Path_2515" data-name="Path 2515" d="M853.458,495.165l-83.651-21.718,15.253-38.895,77.171,22.794Z" transform="translate(-779.872 -301.682)" fill="#040504"/>
          </g>
        </g>
        <g id="Group_82" data-name="Group 82" transform="translate(157.702 16.557)">
          <g id="Group_81" data-name="Group 81" clip-path="url(#clip-path-11)">
            <path id="Path_2517" data-name="Path 2517" d="M777.388,424.385a.611.611,0,0,1,.368-.671c.449-.167,1.019.222,1.429.5a6.821,6.821,0,0,1,1.2,1.07,6.433,6.433,0,0,1,1,1.356c.025.049.213.575.143.377a2.846,2.846,0,0,1,.142.457.936.936,0,0,1-.029.488c-.017.051-.108.225-.094.154a.192.192,0,0,1-.208.178l-.026,0c.121.031-.313,0-.292,0a.857.857,0,0,1-.289-.122,2.958,2.958,0,0,1-.324-.261,3.233,3.233,0,0,1-.257-.2,4.932,4.932,0,0,1-.554-.623.681.681,0,0,1-.044-.057c-.029-.033-.057-.066-.087-.1-.073-.083-.148-.163-.222-.246-.3-.329-.618-.632-.919-.959-.347-.381-.865-.8-.94-1.347" transform="translate(-514.907 -197.994)" fill="#bb7e66"/>
            <path id="Path_2518" data-name="Path 2518" d="M778.359,431.72c-.012-.027-.022-.053-.034-.079a.367.367,0,0,1,.036-.343.287.287,0,0,1,.3-.1l.058.007a.6.6,0,0,1,.27.043,2.587,2.587,0,0,1,.244.1,1.487,1.487,0,0,1,.234.172l.255.2c.04.031.082.057.121.093a.969.969,0,0,1,.162.213,1.226,1.226,0,0,1,.29.426v.015l.042.057a.7.7,0,0,1,.09.3.249.249,0,0,1-.151.276.551.551,0,0,1-.211.022.654.654,0,0,1-.191-.063.916.916,0,0,1-.413-.153v0a.853.853,0,0,1-.228-.114c-.078-.057-.151-.121-.224-.184a2.4,2.4,0,0,1-.406-.393,1.256,1.256,0,0,1-.245-.478" transform="translate(-515.328 -201.21)" fill="#bb7e66"/>
            <path id="Path_2519" data-name="Path 2519" d="M750.37,443.38s22.806.146,33.1-2.494,24.7,4.562,15.737,19.1S762.5,480.941,748.7,480.36Z" transform="translate(-501.726 -205.134)" fill="#cc8d73"/>
            <path id="Path_2520" data-name="Path 2520" d="M796.479,457.023c-1.567,4.512-4.979,7.765-8.5,10.341-.219.162-.438.32-.658.479h0q-2.249,1.618-4.6,3.051s0,0,0,0q-2.792,1.715-5.716,3.161h0a72.186,72.186,0,0,1-11.6,4.556,59.217,59.217,0,0,1-12.844,2.282c-.661,1.358-1.479,2.624-2.237,3.9-.953,1.6-1.946,3.2-3.041,4.688a15.4,15.4,0,0,1-3.555,3.853,14.216,14.216,0,0,1-4.8,1.693.4.4,0,0,1-.275-.74c1.52-.725,2.449-2.173,3.591-3.393a43.9,43.9,0,0,0,3.239-3.927c1.419-1.929,2.72-4.045,4.192-5.958a54.5,54.5,0,0,1-5.542-.217,21.068,21.068,0,0,1-3.743-.515,4.7,4.7,0,0,1-2.933-2.241.617.617,0,0,1,.055-.836.538.538,0,0,1,.47-.136c.9.147,1.8.172,2.707.32.95.154,1.892.286,2.839.372l.212.022a52.843,52.843,0,0,0,6.151.2,56.6,56.6,0,0,0,11.652-1.539,69.522,69.522,0,0,0,11.08-3.716q3.142-1.353,6.158-3.025,2.291-1.258,4.492-2.7c.111-.074.223-.143.337-.217,5.838-3.791,13.394-9.65,10.89-18.894-2.557-9.444-12.6-7.456-18.668-6.7q-2.526.315-5.055.625l-.981.121q-2.6.32-5.2.637c-1.567.195-3.135.383-4.7.572-2.6.313-5.2.637-7.817.894-2.341.236-4.686.585-7.056.663-.369.011-.738.018-1.106.015-.87,0-1.318-1.5-.432-1.737.54-.14,1.085-.265,1.635-.372,1.506-.3,3.044-.5,4.575-.714h.021c.477-.062.95-.129,1.423-.2,2.491-.372,4.986-.7,7.487-1.019q3.412-.443,6.826-.872,2.594-.331,5.189-.652c.334-.044.664-.085,1-.125.658-.085,1.318-.166,1.976-.246,7.01-.873,17.5-3.368,22.151,5.966a16.3,16.3,0,0,1,.731,12.277" transform="translate(-496.492 -204.048)" fill="#bb7e66"/>
            <path id="Path_2521" data-name="Path 2521" d="M806.835,459.1l-2.227-6.572a1.66,1.66,0,0,1,.844-2.2q.873-.232,1.746-.472a.941.941,0,0,1,.541-.435,15.558,15.558,0,0,1,3.963-.724,10.49,10.49,0,0,1,4.378-.15,7.428,7.428,0,0,1,4.458,2.978,6.81,6.81,0,0,1,1.583,4.091,8.159,8.159,0,0,1-3.874,7.591,20.656,20.656,0,0,1-4.584,1.988,6.4,6.4,0,0,1-1.986.489,3.37,3.37,0,0,1-2.357-1.171c-1.34-1.447-1.867-3.585-2.486-5.414Z" transform="translate(-527.366 -208.576)" fill="none" stroke="#bb7e66" stroke-miterlimit="10" stroke-width="3"/>
            <path id="Path_2522" data-name="Path 2522" d="M775.814,477.526c-.263-1.063-.341-2.161-.549-3.233s-.437-2.115-.722-3.161c-.316-1.158-.643-2.312-1-3.46a4.52,4.52,0,0,1-.383-1.793c.031-.257.145-.651.432-.614.929.114,1.374,1.354,1.769,2.155a22.7,22.7,0,0,1,1.229,3.027,26.5,26.5,0,0,1,1.425,6.533,4.192,4.192,0,0,1-.162,1.616c-.105.3-.341.795-.667.858-.713.141-1.236-1.372-1.373-1.931Z" transform="translate(-512.968 -215.804)" fill="#bb7e66"/>
            <path id="Path_2523" data-name="Path 2523" d="M771.053,478.412a1.942,1.942,0,0,1-.589-.762,7.037,7.037,0,0,1-.385-.9,4.132,4.132,0,0,1-.229-.942,2.135,2.135,0,0,1,0-.848.437.437,0,0,1,.324-.5.52.52,0,0,1,.541.352l.01.02a1.263,1.263,0,0,1,.221.359q.081.185.162.368a5.984,5.984,0,0,1,.291.787c.089.3.2.6.27.9l.034.143c0,.013.025.1.031.122a1.314,1.314,0,0,1,.045.616.727.727,0,0,1-.039.272,1.48,1.48,0,0,1,.008.208.171.171,0,0,1-.182.162.157.157,0,0,1-.075-.027,1.507,1.507,0,0,1-.162-.137.751.751,0,0,1-.277-.187" transform="translate(-511.427 -219.738)" fill="#bb7e66"/>
            <path id="Path_2524" data-name="Path 2524" d="M918.885,356.216l-2.344,8.454-7.279-2.161" transform="translate(-575.506 -169.105)" fill="none" stroke="#ffe600" stroke-miterlimit="10" stroke-width="8.417"/>
            <path id="Path_2525" data-name="Path 2525" d="M883.763,308.744l1.6-4.79,5.477,1.2" transform="translate(-563.79 -146.724)" fill="none" stroke="#ffe600" stroke-miterlimit="10" stroke-width="8.417"/>
            <path id="Path_2526" data-name="Path 2526" d="M926.611,312.206l6.807,1.487-1.76,6.355" transform="translate(-583.478 -150.258)" fill="none" stroke="#ffe600" stroke-miterlimit="10" stroke-width="8.417"/>
            <path id="Path_2527" data-name="Path 2527" d="M874.495,351.59l-6.063-1.8,2.661-7.971" transform="translate(-556.745 -162.938)" fill="none" stroke="#ffe600" stroke-miterlimit="10" stroke-width="8.417"/>
          </g>
        </g>
      </g>
    </g>
  </g>
</svg>
